<svg width="33" height="32" viewBox="0 0 33 32" fill="none" xmlns="http://www.w3.org/2000/svg">
<path d="M20.45 8H12.05C10.3698 8 9.52976 8 8.88803 8.32698C8.32354 8.6146 7.8646 9.07354 7.57698 9.63803C7.25 10.2798 7.25 11.1198 7.25 12.8V19C7.25 19.93 7.25 20.395 7.35222 20.7765C7.62962 21.8117 8.43827 22.6204 9.47354 22.8978C9.85504 23 10.32 23 11.25 23V25.3355C11.25 25.8684 11.25 26.1348 11.3592 26.2716C11.4542 26.3906 11.5983 26.4599 11.7505 26.4597C11.9256 26.4595 12.1337 26.2931 12.5498 25.9602L14.9352 24.0518C15.4225 23.662 15.6662 23.4671 15.9375 23.3285C16.1782 23.2055 16.4344 23.1156 16.6992 23.0613C16.9977 23 17.3097 23 17.9337 23H20.45C22.1302 23 22.9702 23 23.612 22.673C24.1765 22.3854 24.6354 21.9265 24.923 21.362C25.25 20.7202 25.25 19.8802 25.25 18.2V12.8C25.25 11.1198 25.25 10.2798 24.923 9.63803C24.6354 9.07354 24.1765 8.6146 23.612 8.32698C22.9702 8 22.1302 8 20.45 8Z" fill="#232428" stroke="#232428" stroke-linecap="round" stroke-linejoin="round"/>
<path d="M11.75 15.5H11.76M16.25 15.5H16.26M20.75 15.5H20.76M12.25 15.5C12.25 15.7761 12.0261 16 11.75 16C11.4739 16 11.25 15.7761 11.25 15.5C11.25 15.2239 11.4739 15 11.75 15C12.0261 15 12.25 15.2239 12.25 15.5ZM16.75 15.5C16.75 15.7761 16.5261 16 16.25 16C15.9739 16 15.75 15.7761 15.75 15.5C15.75 15.2239 15.9739 15 16.25 15C16.5261 15 16.75 15.2239 16.75 15.5ZM21.25 15.5C21.25 15.7761 21.0261 16 20.75 16C20.4739 16 20.25 15.7761 20.25 15.5C20.25 15.2239 20.4739 15 20.75 15C21.0261 15 21.25 15.2239 21.25 15.5Z" stroke="white" stroke-width="2" stroke-linecap="round" stroke-linejoin="round"/>
</svg>
