<svg width="33" height="32" viewBox="0 0 33 32" fill="none" xmlns="http://www.w3.org/2000/svg">
<rect x="7.34961" y="8.36035" width="16.8" height="16.8" rx="2" stroke="#232428" stroke-width="2"/>
<path d="M11.75 19C12.6129 20.206 14.0823 21 15.75 21C17.4177 21 18.8871 20.206 19.75 19" stroke="#232428" stroke-width="2" stroke-linecap="round"/>
<path d="M8.11364 16C9.75852 16 11.1914 15.1258 11.935 13.8347C12.6786 15.1258 14.1051 16 15.75 16C17.3949 16 18.8278 15.1258 19.5714 13.8347C20.315 15.1258 21.7415 16 23.3864 16C25.3352 16 26.9858 14.773 27.546 13.0795C27.8097 12.2823 27.4858 11.443 26.9947 10.7619L24.0382 6.66082C23.2864 5.61795 22.0791 5 20.7935 5H15.75H10.7065C9.42088 5 8.2136 5.61795 7.46178 6.66083L4.50527 10.7619C4.01424 11.443 3.6903 12.2823 3.95399 13.0795C4.51416 14.773 6.16479 16 8.11364 16Z" fill="#232428"/>
</svg>
