<svg width="33" height="32" viewBox="0 0 33 32" fill="none" xmlns="http://www.w3.org/2000/svg">
<path d="M16.818 6.675C16.2846 6.275 15.5513 6.275 15.018 6.675L7.51797 12.3C7.14026 12.5833 6.91797 13.0279 6.91797 13.5V24.75C6.91797 25.5784 7.58954 26.25 8.41797 26.25H11.043C11.8714 26.25 12.543 25.5784 12.543 24.75V19.875C12.543 19.0466 13.2145 18.375 14.043 18.375H17.793C18.6214 18.375 19.293 19.0466 19.293 19.875V24.75C19.293 25.5784 19.9645 26.25 20.793 26.25H23.418C24.2464 26.25 24.918 25.5784 24.918 24.75V13.5C24.918 13.0279 24.6957 12.5833 24.318 12.3L16.818 6.675Z" fill="#232428"/>
</svg>
