<svg width="33" height="32" viewBox="0 0 33 32" fill="none" xmlns="http://www.w3.org/2000/svg">
<path d="M8.25 10.8C8.25 9.11984 8.25 8.27976 8.57698 7.63803C8.8646 7.07354 9.32354 6.6146 9.88803 6.32698C10.5298 6 11.3698 6 13.05 6H19.45C21.1302 6 21.9702 6 22.612 6.32698C23.1765 6.6146 23.6354 7.07354 23.923 7.63803C24.25 8.27976 24.25 9.11984 24.25 10.8V21.2C24.25 22.8802 24.25 23.7202 23.923 24.362C23.6354 24.9265 23.1765 25.3854 22.612 25.673C21.9702 26 21.1302 26 19.45 26H13.05C11.3698 26 10.5298 26 9.88803 25.673C9.32354 25.3854 8.8646 24.9265 8.57698 24.362C8.25 23.7202 8.25 22.8802 8.25 21.2V10.8Z" fill="#232428" stroke="#232428" stroke-width="2" stroke-linecap="round" stroke-linejoin="round"/>
<path d="M18.25 15H12.25M14.25 19H12.25M20.25 11H12.25" stroke="white" stroke-width="2" stroke-linecap="round" stroke-linejoin="round"/>
</svg>
