<svg width="13" height="12" viewBox="0 0 13 12" fill="none" xmlns="http://www.w3.org/2000/svg">
<path d="M5.875 6C5.875 6.27614 6.09886 6.5 6.375 6.5C6.65114 6.5 6.875 6.27614 6.875 6C6.875 5.72386 6.65114 5.5 6.375 5.5C6.09886 5.5 5.875 5.72386 5.875 6Z" fill="white"/>
<path d="M9.375 6C9.375 6.27614 9.59886 6.5 9.875 6.5C10.1511 6.5 10.375 6.27614 10.375 6C10.375 5.72386 10.1511 5.5 9.875 5.5C9.59886 5.5 9.375 5.72386 9.375 6Z" fill="white"/>
<path d="M2.375 6C2.375 6.27614 2.59886 6.5 2.875 6.5C3.15114 6.5 3.375 6.27614 3.375 6C3.375 5.72386 3.15114 5.5 2.875 5.5C2.59886 5.5 2.375 5.72386 2.375 6Z" fill="white"/>
<path d="M5.875 6C5.875 6.27614 6.09886 6.5 6.375 6.5C6.65114 6.5 6.875 6.27614 6.875 6C6.875 5.72386 6.65114 5.5 6.375 5.5C6.09886 5.5 5.875 5.72386 5.875 6Z" stroke="white" stroke-width="1.28571" stroke-linecap="round" stroke-linejoin="round"/>
<path d="M9.375 6C9.375 6.27614 9.59886 6.5 9.875 6.5C10.1511 6.5 10.375 6.27614 10.375 6C10.375 5.72386 10.1511 5.5 9.875 5.5C9.59886 5.5 9.375 5.72386 9.375 6Z" stroke="white" stroke-width="1.28571" stroke-linecap="round" stroke-linejoin="round"/>
<path d="M2.375 6C2.375 6.27614 2.59886 6.5 2.875 6.5C3.15114 6.5 3.375 6.27614 3.375 6C3.375 5.72386 3.15114 5.5 2.875 5.5C2.59886 5.5 2.375 5.72386 2.375 6Z" stroke="white" stroke-width="1.28571" stroke-linecap="round" stroke-linejoin="round"/>
</svg>
