<svg width="82" height="19" viewBox="0 0 82 19" fill="none" xmlns="http://www.w3.org/2000/svg">
<path d="M79.8293 0.600049C81.2213 1.32005 82.0613 2.97605 81.6293 4.84805C81.0533 7.36805 79.3733 9.00005 77.3573 10.44C77.6933 11.976 77.7173 13.368 77.5493 14.712C77.2373 17.136 75.9653 18.72 73.6373 18.72C71.3093 18.72 70.0373 17.136 69.7253 14.712C69.5573 13.416 69.5813 12.072 69.8933 10.584C67.4693 9.36005 65.6693 7.53605 65.1173 5.40005C64.5653 3.24005 65.1893 1.84805 66.7253 0.840048C68.1893 -0.119952 70.9253 0.0480485 72.2693 1.94405C72.8453 2.78405 73.3253 3.76805 73.5413 4.68005C73.7573 3.69605 74.2853 2.66405 74.8853 1.84805C76.2293 0.0240488 78.4853 -0.0959511 79.8293 0.600049Z" fill="#5792FF"/>
<path d="M63.5931 10.7761C64.8171 12.3841 65.3931 13.9681 65.3931 15.2881C65.3931 16.2721 65.2011 17.0401 64.5771 17.7121C63.9531 18.3841 63.0411 18.7201 62.0811 18.7201C60.8811 18.7201 60.0411 18.1201 59.3691 17.1121C58.6731 16.0561 58.3131 14.5681 58.1211 12.4801C57.9051 12.4321 57.6891 12.3841 57.5211 12.3361C57.6651 13.1281 57.6651 14.1361 57.5691 15.0481C57.3531 17.0881 56.0811 18.7201 54.0171 18.7201C52.0491 18.7201 50.8731 17.2081 50.4651 15.1681C49.8651 12.2161 49.9131 7.27209 50.3211 4.96809C50.6571 3.09609 51.5451 1.46409 53.3451 0.816086C54.4011 0.432086 55.8171 0.288086 57.2811 0.288086C61.6491 0.288086 64.8651 2.30409 64.8651 6.57609C64.8651 8.28009 64.4331 9.72009 63.5931 10.7761ZM57.3531 6.69609C57.4011 7.03209 57.6171 7.12809 58.0971 7.12809C58.7211 7.12809 59.2491 6.86409 59.2491 6.24009C59.2491 5.59209 58.7211 5.32809 58.0971 5.32809C57.6171 5.32809 57.4011 5.42409 57.3531 5.76009C57.3051 6.09609 57.3051 6.36009 57.3531 6.69609Z" fill="#5792FF"/>
<path d="M40.452 18.7201C36.108 18.7201 33.612 16.8721 32.772 13.2001C32.124 10.3921 32.004 6.93611 32.604 3.52811C32.964 1.51211 34.428 0.192113 36.396 0.288113C38.508 0.384113 39.78 1.82411 39.78 3.98411C39.78 5.83211 39.516 8.49611 39.684 10.1281C39.78 11.0641 39.996 11.5201 40.5 11.5201C41.004 11.5201 41.172 11.0161 41.268 10.0321C41.412 8.54411 41.268 5.71211 41.268 4.10411C41.268 1.82411 42.684 0.528113 44.532 0.408113C46.236 0.288113 48.252 1.29611 48.636 3.52811C49.14 6.52811 49.308 10.1761 48.42 13.3201C47.436 16.8721 44.748 18.7201 40.452 18.7201Z" fill="#5792FF"/>
<path d="M15.3628 9.40809C15.3628 3.62409 19.0588 0.288086 24.0268 0.288086C26.4028 0.288086 27.7468 0.552085 29.0428 1.27209C30.4588 2.06409 30.7948 3.62409 30.2908 4.99209C29.7628 6.40809 28.2508 6.72009 26.8108 6.36009C26.3308 6.24009 25.9708 6.19209 25.5148 6.19209C23.7388 6.19209 22.8028 7.70409 22.8028 9.40809C22.8028 11.3521 23.5948 12.3361 24.6748 12.3361C25.1788 12.3361 25.4188 12.2401 25.4188 11.9761C25.4188 11.7121 25.1788 11.5681 24.7708 11.4481C24.0508 11.2081 23.4268 10.6801 23.4268 9.33609C23.4268 8.08809 24.3148 6.84009 25.9948 6.91209C29.8348 7.10409 31.7548 8.25609 31.7548 11.9761C31.7548 15.9121 28.6588 18.7201 23.9068 18.7201C18.4348 18.7201 15.3628 15.4321 15.3628 9.40809Z" fill="#5792FF"/>
<path d="M7.43998 18.7201C3.04798 18.7201 0.47998 15.0481 0.47998 9.50409C0.47998 3.96009 3.04798 0.288086 7.43998 0.288086C11.832 0.288086 14.4 3.96009 14.4 9.50409C14.4 15.0481 11.832 18.7201 7.43998 18.7201ZM7.43998 10.8481C7.99198 10.8481 8.42398 10.2721 8.42398 9.50409C8.42398 8.73609 7.99198 8.16009 7.43998 8.16009C6.88798 8.16009 6.45598 8.73609 6.45598 9.50409C6.45598 10.2721 6.88798 10.8481 7.43998 10.8481Z" fill="#5792FF"/>
</svg>
