<svg width="16" height="16" viewBox="0 0 16 16" fill="none" xmlns="http://www.w3.org/2000/svg">
<path d="M7.99967 7.33333C6.52692 7.33333 5.33301 6.13943 5.33301 4.66667C5.33301 3.19391 6.52692 2 7.99967 2C9.47243 2 10.6663 3.19391 10.6663 4.66667C10.6663 6.13943 9.47243 7.33333 7.99967 7.33333Z" fill="#A0A4B3"/>
<path d="M2.00043 13.4654C2.25884 10.2836 4.84127 8.66589 7.98889 8.66589C11.1808 8.66589 13.8033 10.1947 13.9986 13.4659C14.0064 13.5962 13.9986 13.9992 13.4978 13.9992C11.0274 13.9992 7.35648 13.9992 2.485 13.9992C2.31781 13.9992 1.98636 13.6387 2.00043 13.4654Z" fill="#A0A4B3"/>
</svg>
