<svg width="16" height="16" viewBox="0 0 16 16" fill="none" xmlns="http://www.w3.org/2000/svg">
<path d="M7.99961 7.33333C6.52685 7.33333 5.33295 6.13943 5.33295 4.66667C5.33295 3.19391 6.52685 2 7.99961 2C9.47237 2 10.6663 3.19391 10.6663 4.66667C10.6663 6.13943 9.47237 7.33333 7.99961 7.33333Z" fill="#6C7181"/>
<path d="M2.00043 13.4652C2.25884 10.2834 4.84127 8.66577 7.98889 8.66577C11.1808 8.66577 13.8033 10.1946 13.9986 13.4658C14.0064 13.5961 13.9986 13.9991 13.4978 13.9991C11.0274 13.9991 7.35648 13.9991 2.485 13.9991C2.31781 13.9991 1.98636 13.6386 2.00043 13.4652Z" fill="#6C7181"/>
</svg>
