<svg width="26" height="26" viewBox="0 0 26 26" fill="none" xmlns="http://www.w3.org/2000/svg">
<path opacity="0.3" d="M16.6509 19.0501C16.6509 17.0336 15.0162 15.3989 12.9998 15.3989C10.9833 15.3989 9.34863 17.0336 9.34863 19.0501C9.34863 21.0665 10.9833 22.7012 12.9998 22.7012C15.0162 22.7012 16.6509 21.0665 16.6509 19.0501Z" fill="#66686E"/>
<path fill-rule="evenodd" clip-rule="evenodd" d="M19.9062 14.9206H21.9779C23.122 14.9206 24.0495 15.8482 24.0495 16.9923C24.0495 18.1364 23.122 19.0639 21.9779 19.0639H4.02356C2.87941 19.0639 1.9519 18.1364 1.9519 16.9923C1.9519 15.8482 2.87941 14.9206 4.02356 14.9206H6.09521L6.86624 7.98134C7.21356 4.85552 9.85567 2.49072 13.0007 2.49072C16.1458 2.49072 18.7879 4.85552 19.1352 7.98134L19.9062 14.9206Z" fill="#CACACF"/>
<path d="M22.4257 4.90391C22.4257 3.30929 21.133 2.0166 19.5384 2.0166C17.9438 2.0166 16.6511 3.30929 16.6511 4.90391C16.6511 6.49853 17.9438 7.79122 19.5384 7.79122C21.133 7.79122 22.4257 6.49853 22.4257 4.90391Z" fill="#4284FF"/>
</svg>
