<svg width="24" height="25" viewBox="0 0 24 25" fill="none" xmlns="http://www.w3.org/2000/svg">
<path d="M4.27209 21.098L10.8686 14.5015C11.2646 14.1055 11.4627 13.9075 11.691 13.8333C11.8918 13.768 12.1082 13.768 12.309 13.8333C12.5373 13.9075 12.7354 14.1055 13.1314 14.5015L19.6839 21.054M14 15.3701L16.8686 12.5015C17.2646 12.1055 17.4627 11.9075 17.691 11.8333C17.8918 11.768 18.1082 11.768 18.309 11.8333C18.5373 11.9075 18.7354 12.1055 19.1314 12.5015L22 15.3701M10 9.37012C10 10.4747 9.10457 11.3701 8 11.3701C6.89543 11.3701 6 10.4747 6 9.37012C6 8.26555 6.89543 7.37012 8 7.37012C9.10457 7.37012 10 8.26555 10 9.37012ZM6.8 21.3701H17.2C18.8802 21.3701 19.7202 21.3701 20.362 21.0431C20.9265 20.7555 21.3854 20.2966 21.673 19.7321C22 19.0904 22 18.2503 22 16.5701V8.17012C22 6.48996 22 5.64988 21.673 5.00815C21.3854 4.44366 20.9265 3.98472 20.362 3.6971C19.7202 3.37012 18.8802 3.37012 17.2 3.37012H6.8C5.11984 3.37012 4.27976 3.37012 3.63803 3.6971C3.07354 3.98472 2.6146 4.44366 2.32698 5.00815C2 5.64988 2 6.48996 2 8.17012V16.5701C2 18.2503 2 19.0904 2.32698 19.7321C2.6146 20.2966 3.07354 20.7555 3.63803 21.0431C4.27976 21.3701 5.11984 21.3701 6.8 21.3701Z" stroke="#AEAFB6" stroke-width="1.5" stroke-linecap="round" stroke-linejoin="round"/>
</svg>
