<svg width="20" height="21" viewBox="0 0 20 21" fill="none" xmlns="http://www.w3.org/2000/svg">
<g clip-path="url(#clip0_655_489)">
<path d="M10 1.2041C11.1795 1.2041 11.157 1.6361 11.9515 1.6781C12.746 1.7206 13.1615 1.4706 13.698 1.5496C14.071 1.6046 14.3515 1.7711 14.5455 1.9346C14.7575 2.1136 14.7925 2.4251 14.6235 2.6451L12.7755 5.0461C12.611 5.2416 12.631 5.5311 12.824 5.6981C15.7 8.1896 19.25 11.1861 19.25 13.8766C19.25 18.3976 15.539 19.7966 10 19.7966C4.461 19.7966 0.75 18.3976 0.75 13.8766C0.75 11.1866 4.3 8.1896 7.176 5.6981C7.369 5.5311 7.389 5.2411 7.2245 5.0461L5.3765 2.6451C5.2075 2.4251 5.2425 2.1136 5.4545 1.9346C5.6485 1.7711 5.929 1.6046 6.302 1.5496C6.8385 1.4706 7.2545 1.7206 8.0485 1.6781C8.843 1.6356 8.8205 1.2041 10 1.2041Z" fill="#64A7FF"/>
<path d="M10.0412 6.19327C9.07072 6.19327 8.09822 6.10227 7.14922 5.92127C6.84672 5.86327 6.64872 5.57127 6.70622 5.26877C6.76422 4.96627 7.05672 4.76677 7.35872 4.82527C9.11822 5.16077 10.9677 5.16227 12.7072 4.82527C13.0092 4.76477 13.3022 4.96427 13.3607 5.26677C13.4192 5.56927 13.2212 5.86177 12.9187 5.92027C11.9802 6.10177 11.0122 6.19277 10.0412 6.19277V6.19327Z" fill="#4B596A"/>
<path d="M10.1203 16.4618C8.8363 16.4618 7.8588 15.7018 7.4498 15.1803C7.2113 14.8758 7.2648 14.4358 7.5693 14.1973C7.8723 13.9603 8.3093 14.0118 8.5488 14.3128C8.6458 14.4323 9.5238 15.4533 10.9003 14.9033C11.2348 14.7698 11.3873 14.5278 11.3648 14.3573C11.3308 14.0968 10.8968 13.7853 10.0048 13.6783C7.8048 13.4143 7.4733 12.1673 7.4238 11.7908C7.3128 10.9408 7.8488 10.1258 8.7578 9.76284C10.5968 9.02984 11.9388 10.0148 12.4303 10.4723C12.7133 10.7353 12.7288 11.1788 12.4653 11.4618C12.2013 11.7443 11.7593 11.7603 11.4758 11.4968C11.0263 11.0778 10.2793 10.6633 9.2763 11.0638C8.9418 11.1973 8.7893 11.4393 8.8118 11.6098C8.8458 11.8703 9.2793 12.1818 10.1713 12.2888C12.3713 12.5528 12.7028 13.7998 12.7523 14.1758C12.8638 15.0258 12.3273 15.8408 11.4188 16.2038C10.9608 16.3863 10.5248 16.4623 10.1198 16.4623L10.1203 16.4618Z" fill="#E5E9EE"/>
<path d="M10.0887 10.9019C9.70217 10.9019 9.38867 10.5889 9.38867 10.2024V9.20438C9.38867 8.81788 9.70217 8.50488 10.0887 8.50488C10.4752 8.50488 10.7887 8.81788 10.7887 9.20438V10.2024C10.7887 10.5889 10.4752 10.9019 10.0887 10.9019Z" fill="#E5E9EE"/>
<path d="M10.0887 17.4634C9.70217 17.4634 9.38867 17.1504 9.38867 16.7639V15.7659C9.38867 15.3794 9.70217 15.0664 10.0887 15.0664C10.4752 15.0664 10.7887 15.3794 10.7887 15.7659V16.7639C10.7887 17.1504 10.4752 17.4634 10.0887 17.4634Z" fill="#E5E9EE"/>
</g>
<defs>
<clipPath id="clip0_655_489">
<rect width="20" height="20" fill="white" transform="translate(0 0.5)"/>
</clipPath>
</defs>
</svg>
