<svg width="26" height="26" viewBox="0 0 26 26" fill="none" xmlns="http://www.w3.org/2000/svg">
<path d="M15.484 18.0994C15.061 17.6763 15.061 16.9904 15.484 16.5673C15.9071 16.1442 16.593 16.1442 17.0161 16.5673L21.3494 20.9006C21.7725 21.3237 21.7725 22.0096 21.3494 22.4327C20.9264 22.8558 20.2404 22.8558 19.8174 22.4327L15.484 18.0994Z" fill="#797979"/>
<path d="M11.9166 17.3323C14.9081 17.3323 17.3333 14.9072 17.3333 11.9156C17.3333 8.92407 14.9081 6.49894 11.9166 6.49894C8.92504 6.49894 6.49992 8.92407 6.49992 11.9156C6.49992 14.9072 8.92504 17.3323 11.9166 17.3323ZM11.9166 19.4989C7.72843 19.4989 4.33325 16.1038 4.33325 11.9156C4.33325 7.72745 7.72843 4.33228 11.9166 4.33228C16.1047 4.33228 19.4999 7.72745 19.4999 11.9156C19.4999 16.1038 16.1047 19.4989 11.9166 19.4989Z" fill="#797979"/>
</svg>
