<svg width="25" height="24" viewBox="0 0 25 24" fill="none" xmlns="http://www.w3.org/2000/svg">
<path d="M16.95 3H8.55C6.86984 3 6.02976 3 5.38803 3.32698C4.82354 3.6146 4.3646 4.07354 4.07698 4.63803C3.75 5.27976 3.75 6.11984 3.75 7.8V14C3.75 14.93 3.75 15.395 3.85222 15.7765C4.12962 16.8117 4.93827 17.6204 5.97354 17.8978C6.35504 18 6.82003 18 7.75 18V20.3355C7.75 20.8684 7.75 21.1348 7.85923 21.2716C7.95422 21.3906 8.09827 21.4599 8.25054 21.4597C8.42563 21.4595 8.63367 21.2931 9.04976 20.9602L11.4352 19.0518C11.9225 18.662 12.1662 18.4671 12.4375 18.3285C12.6782 18.2055 12.9344 18.1156 13.1992 18.0613C13.4977 18 13.8097 18 14.4337 18H16.95C18.6302 18 19.4702 18 20.112 17.673C20.6765 17.3854 21.1354 16.9265 21.423 16.362C21.75 15.7202 21.75 14.8802 21.75 13.2V7.8C21.75 6.11984 21.75 5.27976 21.423 4.63803C21.1354 4.07354 20.6765 3.6146 20.112 3.32698C19.4702 3 18.6302 3 16.95 3Z" fill="#AEAFB6" stroke="#AEAFB6" stroke-linecap="round" stroke-linejoin="round"/>
<path d="M8.25 10.5H8.26M12.75 10.5H12.76M17.25 10.5H17.26M8.75 10.5C8.75 10.7761 8.52614 11 8.25 11C7.97386 11 7.75 10.7761 7.75 10.5C7.75 10.2239 7.97386 10 8.25 10C8.52614 10 8.75 10.2239 8.75 10.5ZM13.25 10.5C13.25 10.7761 13.0261 11 12.75 11C12.4739 11 12.25 10.7761 12.25 10.5C12.25 10.2239 12.4739 10 12.75 10C13.0261 10 13.25 10.2239 13.25 10.5ZM17.75 10.5C17.75 10.7761 17.5261 11 17.25 11C16.9739 11 16.75 10.7761 16.75 10.5C16.75 10.2239 16.9739 10 17.25 10C17.5261 10 17.75 10.2239 17.75 10.5Z" stroke="white" stroke-width="2" stroke-linecap="round" stroke-linejoin="round"/>
</svg>
