<svg width="25" height="22" viewBox="0 0 25 22" fill="none" xmlns="http://www.w3.org/2000/svg">
<rect x="3.84961" y="3.36035" width="16.8" height="16.8" rx="2" stroke="#AEAFB6" stroke-width="2"/>
<path d="M8.25 14C9.11287 15.206 10.5823 16 12.25 16C13.9177 16 15.3871 15.206 16.25 14" stroke="#AEAFB6" stroke-width="2" stroke-linecap="round"/>
<path d="M4.61364 11C6.25852 11 7.69141 10.1258 8.43501 8.83471C9.17862 10.1258 10.6051 11 12.25 11C13.8949 11 15.3278 10.1258 16.0714 8.83471C16.815 10.1258 18.2415 11 19.8864 11C21.8352 11 23.4858 9.77297 24.046 8.07945C24.3097 7.28226 23.9858 6.44299 23.4947 5.76187L20.5382 1.66082C19.7864 0.617946 18.5791 0 17.2935 0H12.25H7.2065C5.92088 0 4.7136 0.617947 3.96178 1.66083L1.00527 5.76187C0.514238 6.44299 0.190297 7.28226 0.453989 8.07945C1.01416 9.77297 2.66479 11 4.61364 11Z" fill="#AEAFB6"/>
</svg>
