<svg width="19" height="21" viewBox="0 0 19 21" fill="none" xmlns="http://www.w3.org/2000/svg">
<path d="M10.818 0.675C10.2846 0.275 9.5513 0.275 9.01797 0.675L1.51797 6.3C1.14026 6.58328 0.917969 7.02786 0.917969 7.5V18.75C0.917969 19.5784 1.58954 20.25 2.41797 20.25H5.04297C5.8714 20.25 6.54297 19.5784 6.54297 18.75V13.875C6.54297 13.0466 7.21454 12.375 8.04297 12.375H11.793C12.6214 12.375 13.293 13.0466 13.293 13.875V18.75C13.293 19.5784 13.9645 20.25 14.793 20.25H17.418C18.2464 20.25 18.918 19.5784 18.918 18.75V7.5C18.918 7.02786 18.6957 6.58328 18.318 6.3L10.818 0.675Z" fill="#232428"/>
</svg>
