<svg width="25" height="24" viewBox="0 0 25 24" fill="none" xmlns="http://www.w3.org/2000/svg">
<path d="M4.25 6.8C4.25 5.11984 4.25 4.27976 4.57698 3.63803C4.8646 3.07354 5.32354 2.6146 5.88803 2.32698C6.52976 2 7.36984 2 9.05 2H15.45C17.1302 2 17.9702 2 18.612 2.32698C19.1765 2.6146 19.6354 3.07354 19.923 3.63803C20.25 4.27976 20.25 5.11984 20.25 6.8V17.2C20.25 18.8802 20.25 19.7202 19.923 20.362C19.6354 20.9265 19.1765 21.3854 18.612 21.673C17.9702 22 17.1302 22 15.45 22H9.05C7.36984 22 6.52976 22 5.88803 21.673C5.32354 21.3854 4.8646 20.9265 4.57698 20.362C4.25 19.7202 4.25 18.8802 4.25 17.2V6.8Z" fill="#AEAFB6" stroke="#AEAFB6" stroke-width="2" stroke-linecap="round" stroke-linejoin="round"/>
<path d="M14.25 11H8.25M10.25 15H8.25M16.25 7H8.25" stroke="white" stroke-width="2" stroke-linecap="round" stroke-linejoin="round"/>
</svg>
