<svg width="51" height="51" viewBox="0 0 51 51" fill="none" xmlns="http://www.w3.org/2000/svg">
<g clip-path="url(#clip0_432_1877)">
<g clip-path="url(#clip1_432_1877)">
<path d="M5.69238 34.1879L5.70488 17.4666C5.70613 15.6254 6.68988 13.9241 8.28488 13.0054L22.7724 4.65539C24.3674 3.73539 26.3324 3.73789 27.9261 4.65914L42.4011 13.0304C43.9949 13.9516 44.9761 15.6541 44.9749 17.4954L44.9624 34.2166C44.9611 36.0579 43.9774 37.7591 42.3824 38.6779L27.8949 47.0279C26.2999 47.9479 24.3349 47.9454 22.7411 47.0241L8.26613 38.6529C6.67238 37.7316 5.69113 36.0291 5.69238 34.1879Z" fill="#C0DCFE"/>
<path d="M44.9752 17.4957C44.9752 17.1507 44.9302 16.8132 44.8639 16.4832C44.5564 15.7082 43.6102 15.3082 42.8177 15.7657L26.9939 24.8857C25.9664 25.4782 25.3327 26.5732 25.3314 27.7607L25.3164 47.7182C26.2064 47.7182 27.0964 47.4895 27.8939 47.0295L35.1377 42.8545L42.3814 38.6795C43.9764 37.7607 44.9602 36.0595 44.9614 34.2182L44.9752 17.4957Z" fill="#2F8AEB"/>
<path d="M25.3176 47.7169L25.3326 27.9369C25.3326 26.6407 24.6426 25.4419 23.5201 24.7932L7.8876 15.7519C7.0801 15.2844 6.1126 15.6994 5.8101 16.4969C5.74885 16.8144 5.70635 17.1369 5.70635 17.4669L5.70135 24.7644L5.69385 34.1882C5.69385 36.0294 6.67385 37.7307 8.2676 38.6532L15.5051 42.8394L22.7426 47.0257C23.5388 47.4869 24.4288 47.7169 25.3188 47.7182L25.3176 47.7169Z" fill="#5399FE"/>
</g>
</g>
<defs>
<clipPath id="clip0_432_1877">
<rect width="50" height="50" fill="white" transform="translate(0.666504 0.674805)"/>
</clipPath>
<clipPath id="clip1_432_1877">
<rect width="50" height="50" fill="white" transform="translate(0.333496 0.841797)"/>
</clipPath>
</defs>
</svg>
