<svg width="51" height="51" viewBox="0 0 51 51" fill="none" xmlns="http://www.w3.org/2000/svg">
<path d="M25.6667 43.0121C36.3795 43.0121 45.0639 34.3277 45.0639 23.615C45.0639 12.9022 36.3795 4.21777 25.6667 4.21777C14.9539 4.21777 6.26953 12.9022 6.26953 23.615C6.26953 34.3277 14.9539 43.0121 25.6667 43.0121Z" fill="#E5E9EE"/>
<path d="M25.6666 38.0441C33.6357 38.0441 40.0959 31.5839 40.0959 23.6148C40.0959 15.6458 33.6357 9.18555 25.6666 9.18555C17.6975 9.18555 11.2373 15.6458 11.2373 23.6148C11.2373 31.5839 17.6975 38.0441 25.6666 38.0441Z" fill="#F3F3F3"/>
<path d="M34.3724 15.8469L32.8483 31.2626H30.3134L28.9401 22.8565C28.5954 19.5756 30.4686 16.4632 33.5289 15.2317C33.9512 15.0621 34.4046 15.3924 34.3724 15.8469Z" fill="#C0DCFE"/>
<path d="M30.3131 31.2627L29.29 44.8363C29.2689 45.723 29.9817 46.4523 30.8684 46.4523H32.2883C33.175 46.4523 33.8877 45.723 33.8666 44.8363L32.8469 31.2627H30.3131Z" fill="#5399FE"/>
<path d="M20.0489 31.2627L19.0258 44.8363C19.0048 45.723 19.7175 46.4523 20.6042 46.4523H22.0241C22.9108 46.4523 23.6235 45.723 23.6025 44.8363L22.5827 31.2627H20.0478H20.0489Z" fill="#5399FE"/>
<path d="M22.5365 30.5911C22.5431 29.6356 23.2902 29.3685 23.2902 29.3685L23.2858 29.3641C23.3168 29.3485 23.35 29.3408 23.3822 29.3253L25.251 28.6624C26.2718 28.1404 26.8936 26.8424 26.7617 25.5057L25.4438 15.939C25.384 15.5078 25.016 15.1875 24.5815 15.1875C24.096 15.1875 23.7047 15.5843 23.7103 16.0698L23.8134 24.3175C23.8134 24.6245 23.6637 24.8994 23.431 25.018C23.2758 25.0978 23.0995 25.0978 22.9444 25.018C22.7127 24.8994 22.562 24.6245 22.562 24.3175L22.4212 16.0432C22.4134 15.5677 22.0255 15.1875 21.55 15.1875H21.0789C20.6034 15.1875 20.2166 15.5688 20.2077 16.0432L20.0669 24.3175C20.0669 24.6245 19.9173 24.8994 19.6834 25.018C19.5294 25.0978 19.352 25.0978 19.1968 25.018C18.9652 24.8994 18.8144 24.6245 18.8144 24.3175L18.9186 16.0698C18.9253 15.5843 18.5329 15.1875 18.0474 15.1875C17.6118 15.1875 17.2438 15.5089 17.1851 15.939L15.8672 25.5057C15.7353 26.8413 16.3571 28.1393 17.3779 28.6624L19.2467 29.3253C19.2766 29.3408 19.3088 29.3485 19.3398 29.363L19.3343 29.3685C19.3343 29.3685 20.1157 29.6423 20.0924 30.6443L20.0492 31.2628H22.5841L22.5365 30.5911Z" fill="#C0DCFE"/>
</svg>
