<svg width="51" height="51" viewBox="0 0 51 51" fill="none" xmlns="http://www.w3.org/2000/svg">
<g clip-path="url(#clip0_432_1821)">
<path d="M22.8599 10.1602L25.2095 10.1602H27.8086V14.1652L31.9098 17.3158C33.7205 18.7067 34.7817 20.8602 34.7817 23.1434V26.957H15.8853V23.1438C15.8853 20.8604 16.9467 18.7067 18.7577 17.3158L22.8599 14.1652V10.1602Z" fill="#E5E9EE"/>
<path d="M27.0889 7.01074H23.5776C22.9978 7.01074 22.5278 7.48076 22.5278 8.06055V10.0552C22.5278 10.1132 22.5748 10.1602 22.6328 10.1602H28.0338C28.0917 10.1602 28.1387 10.1132 28.1387 10.0552V8.06055C28.1387 7.48076 27.6687 7.01074 27.0889 7.01074Z" fill="#5399FE"/>
<path d="M15.8853 27.877H34.7817V44.1053C34.7817 46.4245 32.9017 48.3045 30.5825 48.3045H20.0845C17.7653 48.3045 15.8853 46.4245 15.8853 44.1053V27.877Z" fill="#E5E9EE"/>
<rect x="15.8853" y="24.1875" width="18.8965" height="6.52231" fill="#C0DCFE"/>
</g>
<defs>
<clipPath id="clip0_432_1821">
<rect width="50" height="50" fill="white" transform="translate(0.333496 0.334961)"/>
</clipPath>
</defs>
</svg>
