<svg width="50" height="51" viewBox="0 0 50 51" fill="none" xmlns="http://www.w3.org/2000/svg">
<g clip-path="url(#clip0_432_1802)">
<path fill-rule="evenodd" clip-rule="evenodd" d="M20.8401 22.3721H8.36133V6.02581C8.36133 4.59831 9.82633 3.64081 11.1338 4.21331L17.7488 7.10956C19.6276 7.93206 20.8413 9.78831 20.8413 11.8396L20.8401 22.3721Z" fill="#C0DCFE"/>
<path d="M6.28125 47.3036H22.92V24.4548C22.92 23.3048 21.9875 22.3711 20.8363 22.3711H8.365C7.215 22.3711 6.28125 23.3036 6.28125 24.4548V47.3036Z" fill="#5399FE"/>
<path fill-rule="evenodd" clip-rule="evenodd" d="M43.7188 32.7712H27.0801V14.0524C27.0801 9.45742 30.8051 5.73242 35.4001 5.73242C39.9951 5.73242 43.7201 9.45742 43.7201 14.0524V32.7712H43.7188Z" fill="#5399FE"/>
<path d="M43.7188 41.0908H27.0801V47.3033H43.7188V41.0908Z" fill="#5399FE"/>
<path d="M43.7188 32.7725H27.0801V41.0925H43.7188V32.7725Z" fill="#C0DCFE"/>
</g>
<defs>
<clipPath id="clip0_432_1802">
<rect width="50" height="50" fill="white" transform="translate(0 0.674805)"/>
</clipPath>
</defs>
</svg>
