<svg width="50" height="50" viewBox="0 0 50 50" fill="none" xmlns="http://www.w3.org/2000/svg">
<g clip-path="url(#clip0_432_1783)">
<path d="M26.2438 44.2316C26.8413 44.2316 27.4006 43.9876 27.8583 43.6038C29.751 42.017 32.1502 41.1386 34.6392 41.1386H45.133C46.5167 41.1386 47.6391 40.0161 47.6391 38.6325V11.125H1.69482V38.6325C1.69482 40.0161 2.81728 41.1386 4.2009 41.1386H14.6948C17.1837 41.1386 19.5829 42.0183 21.4757 43.6038C21.9334 43.9876 22.4926 44.2316 23.0901 44.2316H26.2438Z" fill="#5399FE"/>
<path d="M24.6675 41.725C26.6473 39.7452 29.3327 38.6319 32.133 38.6319H45.1329C46.5165 38.6319 47.639 37.5095 47.639 36.1259V8.61838C47.639 7.23476 46.5165 6.1123 45.1329 6.1123H32.133C29.3327 6.1123 26.6473 7.22421 24.6675 9.20533" fill="#D3DCE9"/>
<path d="M24.6676 41.725C22.6878 39.7452 20.0024 38.6319 17.2022 38.6319H4.2009C2.81728 38.6319 1.69482 37.5095 1.69482 36.1259V8.61838C1.69482 7.23476 2.81728 6.1123 4.2009 6.1123H17.2008C20.0011 6.1123 22.6865 7.22421 24.6663 9.20533" fill="#E5E9EE"/>
</g>
<defs>
<clipPath id="clip0_432_1783">
<rect width="50" height="50" fill="white" transform="translate(0 0.00488281)"/>
</clipPath>
</defs>
</svg>
