<svg width="50" height="51" viewBox="0 0 50 51" fill="none" xmlns="http://www.w3.org/2000/svg">
<g clip-path="url(#clip0_432_1832)">
<path d="M24.9317 4.37109C25.9977 4.37109 26.8618 4.79219 26.8618 5.31L26.8618 25.8365L23 25.8365L23 5.31076C23 4.79219 23.8657 4.37186 24.9301 4.37186L24.9317 4.37109Z" fill="#2E3D51"/>
<path d="M13.4187 45.8661L14.4541 46.925C14.8159 47.2951 15.4042 47.2951 15.766 46.925L16.8014 45.8661C17.1633 45.496 17.7515 45.496 18.1134 45.8661L19.1488 46.925C19.5107 47.2951 20.0989 47.2951 20.4608 46.925L21.4962 45.8661C21.8581 45.496 22.4463 45.496 22.8082 45.8661L23.8435 46.925C24.2054 47.2951 24.7936 47.2951 25.1555 46.925L26.1909 45.8661C26.5528 45.496 27.141 45.496 27.5029 45.8661L28.5383 46.925C28.9002 47.2951 29.4884 47.2951 29.8503 46.925L30.8856 45.8661C31.2475 45.496 31.8357 45.496 32.1976 45.8661L33.233 46.925C33.5949 47.2951 34.1831 47.2951 34.545 46.925L35.5804 45.8661C35.9423 45.496 36.5305 45.496 36.8924 45.8661L37.9332 46.9306C38.2962 47.3018 38.8833 47.3007 39.2452 46.9306L39.6323 46.5348C39.8356 46.3268 39.9329 46.0327 39.8957 45.742L38.0841 31.4953L11.1927 31.4953L9.30886 46.3145C9.27169 46.6075 9.36899 46.8993 9.57345 47.1084C9.93534 47.4785 10.5235 47.4785 10.8854 47.1084L12.099 45.8672C12.4609 45.4971 13.0491 45.4971 13.411 45.8672L13.4187 45.8661Z" fill="#D3DCE9"/>
<path d="M19.3686 23.6973L29.8567 23.6973C34.4761 23.6973 38.2252 27.5332 38.2252 32.256L11 32.256C11 27.5316 14.7507 23.6973 19.3686 23.6973Z" fill="#5399FE"/>
<path d="M27.3683 21.5059L22.143 21.5059C20.9595 21.5059 20 22.4871 20 23.6976C20 24.908 20.9595 25.8893 22.143 25.8893L27.3683 25.8893C28.5518 25.8893 29.5113 24.908 29.5113 23.6976C29.5113 22.4871 28.5518 21.5059 27.3683 21.5059Z" fill="#5399FE"/>
</g>
<defs>
<clipPath id="clip0_432_1832">
<rect width="50" height="50" fill="white" transform="translate(0 0.334961)"/>
</clipPath>
</defs>
</svg>
