<svg width="51" height="50" viewBox="0 0 51 50" fill="none" xmlns="http://www.w3.org/2000/svg">
<g clip-path="url(#clip0_432_1812)">
<path d="M34.6835 6.81738H15.9823C13.8047 6.81738 11.6985 7.59738 10.046 9.01488L2.501 15.4911C2.19725 15.7524 2.11975 16.1924 2.31725 16.5411L7.5285 25.7686C7.7585 26.1749 8.276 26.3161 8.67975 26.0824L12.1185 24.0899C12.3347 23.9636 12.6073 24.1211 12.6073 24.3711V46.0136C12.6073 46.6311 13.1085 47.1324 13.726 47.1324H36.9397C37.5572 47.1324 38.0585 46.6311 38.0585 46.0136V24.3711C38.0585 24.1211 38.3297 23.9636 38.5472 24.0899L41.986 26.0824C42.3897 26.3161 42.9085 26.1761 43.1373 25.7686L48.3485 16.5411C48.546 16.1924 48.4685 15.7524 48.1647 15.4911L40.6197 9.01613C38.9672 7.59738 36.861 6.81863 34.6835 6.81863V6.81738Z" fill="#5399FE"/>
<path d="M21.1796 13.147L16.8521 6.8382L19.1371 2.87695L25.4721 9.71445L22.2208 13.2232C21.9296 13.5382 21.4221 13.5007 21.1796 13.147Z" fill="#C0DCFE"/>
<path d="M29.7671 13.147L34.0946 6.8382L31.8096 2.87695L25.4746 9.71445L28.7259 13.2232C29.0171 13.5382 29.5246 13.5007 29.7671 13.147Z" fill="#C0DCFE"/>
<path d="M19.1372 2.87891H31.8085L25.4735 9.71516L19.1372 2.87891Z" fill="#146BC8"/>
</g>
<defs>
<clipPath id="clip0_432_1812">
<rect width="50" height="50" fill="white" transform="translate(0.333496 0.00488281)"/>
</clipPath>
</defs>
</svg>
