<svg width="51" height="50" viewBox="0 0 51 50" fill="none" xmlns="http://www.w3.org/2000/svg">
<g clip-path="url(#clip0_432_1854)">
<path d="M6.67275 45.3167H44.4409C45.0436 45.3167 45.5333 44.8281 45.5333 44.2242V6.45725C45.5333 5.48465 44.3575 4.99721 43.6692 5.68556L5.89992 43.4526C5.21156 44.1409 5.699 45.3167 6.6716 45.3167H6.67275ZM36.5151 36.2985H25.8085L36.5151 25.5919V36.2985Z" fill="#5399FE"/>
<path d="M33.0178 16.3597L32.3647 17.0127L34.5644 19.2123L35.2174 18.5593L33.0178 16.3597Z" fill="#146BC8"/>
<path d="M30.7614 18.6155L30.1084 19.2686L32.308 21.4682L32.961 20.8151L30.7614 18.6155Z" fill="#146BC8"/>
<path d="M35.2731 14.1038L34.6201 14.7568L36.8197 16.9564L37.4728 16.3034L35.2731 14.1038Z" fill="#146BC8"/>
<path d="M37.5295 11.848L36.8765 12.501L39.0761 14.7006L39.7291 14.0476L37.5295 11.848Z" fill="#146BC8"/>
<path d="M39.7849 9.59209L39.1318 10.2451L41.3314 12.4447L41.9845 11.7917L39.7849 9.59209Z" fill="#146BC8"/>
<path d="M42.0412 7.33721L41.3882 7.99023L43.5878 10.1898L44.2408 9.53682L42.0412 7.33721Z" fill="#146BC8"/>
<path d="M28.5075 20.8714L27.8545 21.5244L30.0541 23.724L30.7071 23.071L28.5075 20.8714Z" fill="#146BC8"/>
<path d="M26.2512 23.1273L25.5981 23.7803L27.7978 25.9799L28.4508 25.3269L26.2512 23.1273Z" fill="#146BC8"/>
<path d="M23.9938 25.3841L23.3408 26.0371L25.5404 28.2367L26.1935 27.5837L23.9938 25.3841Z" fill="#146BC8"/>
<path d="M21.7394 27.639L21.0864 28.292L23.286 30.4916L23.9391 29.8386L21.7394 27.639Z" fill="#146BC8"/>
<path d="M19.4821 29.8948L18.8291 30.5479L21.0287 32.7475L21.6817 32.0944L19.4821 29.8948Z" fill="#146BC8"/>
<path d="M17.2277 32.1507L16.5747 32.8037L18.7743 35.0033L19.4273 34.3503L17.2277 32.1507Z" fill="#146BC8"/>
<path d="M14.9704 34.4065L14.3174 35.0596L16.517 37.2592L17.17 36.6062L14.9704 34.4065Z" fill="#146BC8"/>
<path d="M12.7165 36.6624L12.0635 37.3154L14.2631 39.515L14.9161 38.862L12.7165 36.6624Z" fill="#146BC8"/>
<path d="M10.4602 38.9183L9.80713 39.5713L12.0067 41.7709L12.6598 41.1179L10.4602 38.9183Z" fill="#146BC8"/>
<path d="M8.2038 41.1731L7.55078 41.8262L9.75039 44.0258L10.4034 43.3728L8.2038 41.1731Z" fill="#146BC8"/>
</g>
<defs>
<clipPath id="clip0_432_1854">
<rect width="50" height="50" fill="white" transform="translate(0.666504 0.00488281)"/>
</clipPath>
</defs>
</svg>
